<svg width="421" height="370" viewBox="0 0 421 370" fill="none" xmlns="http://www.w3.org/2000/svg">
    <path opacity="0.1" d="M395.548 200.861C380.757 224.409 385.638 258.021 394.188 284.8C397.051 293.764 400.304 303.245 398.819 312.999C397.006 324.922 388.483 333.855 379.624 338.721C363.473 347.588 344.395 346.173 329.948 334.999C317.481 325.356 308.705 309.33 295.996 300.146C274.726 284.782 247.113 291.647 223.441 303.377C206.694 311.675 188.348 322.362 172.027 314.699C160.543 309.308 152.809 295.583 148.74 280.912C146.776 273.828 145.401 266.139 141.487 260.594C139.16 257.298 136.084 255.001 132.922 253.081C104.063 235.547 66.9409 246.506 38.9616 226.943C20.0721 213.731 8.31518 188.092 3.43034 161.138C-1.45451 134.184 -0.245573 105.731 1.70005 77.765C3.08277 57.8904 5.27019 36.6526 15.5688 21.0344C26.4605 4.5219 44.7154 -2.04013 61.0398 0.546107C77.3642 3.13234 91.9998 13.6526 104.803 26.2112C120.818 41.8777 135.552 61.5462 155.469 67.4946C169.035 71.5449 183.448 68.6781 197.551 67.4113C221.125 65.2985 244.616 67.7313 267.964 70.4797C290.314 73.1098 312.819 76.0467 333.987 84.669C348.966 90.7707 360.84 102.304 374.943 110.185C384.135 115.322 394.248 116.515 402.9 123.151C413.576 131.326 423.225 145.809 420.093 163.19C417.135 179.711 403.406 188.364 395.548 200.861Z" fill="#2D74DA"/>
    <path d="M312.54 17.2249H76.0427V348.307H312.54V17.2249Z" fill="url(#paint0_linear)"/>
    <path d="M309.518 21.4592H79.0646V344.081H309.518V21.4592Z" fill="white"/>
    <path d="M261.538 57.8417H168.602V63.1019H261.538V57.8417Z" fill="#C0BCCF"/>
    <path d="M261.538 74.4988H168.602V79.759H261.538V74.4988Z" fill="#C0BCCF"/>
    <path d="M239.249 91.156H190.891V96.4161H239.249V91.156Z" fill="#2D74DA"/>
    <path opacity="0.5" d="M261.538 163.483H168.602V168.743H261.538V163.483Z" fill="#C0BCCF"/>
    <path opacity="0.5" d="M261.538 180.14H168.602V185.4H261.538V180.14Z" fill="#C0BCCF"/>
    <path opacity="0.5" d="M239.249 196.797H190.891V202.057H239.249V196.797Z" fill="#2D74DA"/>
    <path opacity="0.5" d="M261.538 269.124H168.602V274.384H261.538V269.124Z" fill="#C0BCCF"/>
    <path opacity="0.5" d="M261.538 285.781H168.602V291.041H261.538V285.781Z" fill="#C0BCCF"/>
    <path opacity="0.5" d="M239.249 302.438H190.891V307.698H239.249V302.438Z" fill="#2D74DA"/>
    <path d="M218.519 253.672H218.576C218.659 256.609 219.018 259.266 219.709 260.002C221.356 261.755 228.187 258.249 227.718 256.127C227.624 255.689 227.465 254.97 227.265 254.062C229.109 253.795 230.684 253.186 231.311 251.932L232.497 256.175L232.58 256.478H232.603H232.671C233.453 265.078 235.225 282.936 236.642 285.33C238.531 288.499 240.703 302.232 240.703 302.232L244.764 330.405C244.764 330.405 246.328 346.623 247.265 348.377C247.538 348.712 247.9 348.929 248.293 348.995C247.745 350.897 246.959 353.12 246.026 354.36C244.137 356.824 241.651 361.755 239.464 361.404C237.276 361.054 236.653 366.336 240.714 367.037C242.962 367.427 246.547 366.954 249.301 366.454C249.301 367.866 250.148 369.487 252.275 369.856C256.336 370.561 264.772 368.449 264.772 368.449C264.772 368.449 271.95 364.942 272.271 362.461C272.498 360.664 271.398 353.448 270.786 349.666C271.92 347.557 270.711 329.361 270.711 329.361L268.523 294.5C268.523 294.5 269.774 275.134 268.523 271.609C267.741 269.418 267.451 259.336 267.341 252.125L268.852 252.239C268.938 252.119 269.016 251.991 269.086 251.858L269.464 251.888C269.464 251.888 271.353 249.425 269.778 245.55C268.618 242.67 268.837 229.669 269.022 223.194L269.245 220.126C269.328 220.033 269.391 219.919 269.43 219.793C272.36 219.333 275.209 218.333 277.866 216.829C278.668 216.443 279.415 215.916 280.08 215.269C281.644 213.516 280.703 202.943 277.579 187.097C274.455 171.25 271.644 172.657 271.644 172.657C271.644 172.657 264.145 171.952 260.707 166.67C257.269 161.388 254.961 161.458 254.961 161.458C254.874 160.765 254.813 160.112 254.772 159.503C254.772 159.275 254.742 159.064 254.73 158.836C255.899 157.575 256.79 156.007 257.33 154.264C258.032 153.826 258.897 153.681 259.57 153.129C259.741 152.985 259.897 152.817 260.035 152.629C260.708 151.908 261.136 150.929 261.24 149.872C261.347 148.718 261.3 147.551 261.1 146.414C260.862 144.73 260.511 143.008 259.664 141.684C258.818 140.36 257.552 139.562 256.332 138.822C253.028 136.808 249.715 134.815 246.392 132.843C245.744 132.382 245.019 132.084 244.266 131.966C242.936 131.878 241.742 132.935 240.669 133.938C240.241 134.329 239.831 134.746 239.441 135.188C239.11 135.529 238.807 135.906 238.538 136.314C237.284 138.265 236.751 141.938 237.303 144.375C237.477 145.147 237.851 145.37 238.312 145.362C237.628 146.939 237.272 148.681 237.273 150.446C237.28 152.38 237.706 154.28 238.512 155.972C239.319 157.664 240.478 159.094 241.885 160.13C241.885 160.375 241.885 160.616 241.904 160.848C241.92 161.748 241.895 162.648 241.829 163.544C241.829 163.544 233.517 168.756 232.584 171.22C231.651 173.683 228.209 175.445 228.209 175.445C228.209 175.445 221.647 179.32 221.647 193.054L218.209 212.42L217.586 249.394C217.586 249.394 218.017 248.956 218.719 248.333C218.697 248.579 218.678 248.833 218.659 249.092C218.565 250.505 218.534 251.922 218.564 253.339L218.519 253.672ZM260.492 349.367C260.363 349.933 260.174 350.683 259.936 351.559C259.831 350.832 259.725 350.113 259.619 349.429C259.891 349.398 260.182 349.381 260.492 349.367Z" fill="url(#paint1_linear)"/>
    <path d="M249.142 344.827C249.142 344.827 247.937 351.112 246.12 353.554C244.303 355.996 241.923 360.888 239.822 360.537C237.722 360.186 237.113 365.424 241.027 366.121C244.941 366.818 253.045 364.727 253.045 364.727C253.045 364.727 259.966 361.221 260.264 358.792C260.563 356.364 258.458 343.779 258.458 343.779L249.142 344.827Z" fill="#53526B"/>
    <path opacity="0.05" d="M249.142 344.827C249.142 344.827 247.937 351.112 246.12 353.554C244.303 355.996 241.923 360.888 239.822 360.537C237.722 360.186 237.113 365.424 241.027 366.121C244.941 366.818 253.045 364.727 253.045 364.727C253.045 364.727 259.966 361.221 260.264 358.792C260.563 356.364 258.458 343.779 258.458 343.779L249.142 344.827Z" fill="black"/>
    <path d="M260.276 347.618C260.276 347.618 259.071 353.904 257.254 356.346C255.437 358.787 253.045 363.679 250.949 363.329C248.852 362.978 248.24 368.216 252.154 368.913C256.068 369.61 264.19 367.515 264.19 367.515C264.19 367.515 271.111 364.008 271.41 361.58C271.708 359.151 269.604 346.566 269.604 346.566L260.276 347.618Z" fill="#53526B"/>
    <path d="M232.892 251.968C232.892 251.968 235.299 281.99 237.104 285.133C238.91 288.276 241.015 301.891 241.015 301.891L244.925 329.818C244.925 329.818 246.436 345.879 247.331 347.624C248.227 349.368 259.394 348.619 259.394 348.619L252.45 256.154L232.892 251.968Z" fill="#5F5D7E"/>
    <path opacity="0.05" d="M232.892 251.968C232.892 251.968 235.299 281.99 237.104 285.133C238.91 288.276 241.015 301.891 241.015 301.891L244.925 329.818C244.925 329.818 246.436 345.879 247.331 347.624C248.227 349.368 259.394 348.619 259.394 348.619L252.45 256.154L232.892 251.968Z" fill="black"/>
    <path d="M228.079 237.647L228.865 240.545L233.115 256.198L233.198 256.496H233.221C233.792 256.645 245.836 259.858 248.435 260.844C248.575 260.895 248.713 260.955 248.847 261.024C250.052 261.721 251.555 286.856 251.555 286.856C251.555 286.856 252.458 310.596 253.067 312.341C253.675 314.086 256.089 350.039 257.581 348.995C259.073 347.952 269.916 348.995 269.916 348.995C271.121 347.597 269.916 328.748 269.916 328.748L267.778 294.194C267.778 294.194 268.983 274.994 267.778 271.501C266.573 268.007 266.573 244.621 266.573 244.621L241.944 240.155L239.564 239.716L228.079 237.647Z" fill="#5F5D7E"/>
    <path opacity="0.02" d="M228.865 240.549L233.115 256.202L233.217 256.509C233.788 256.658 245.832 259.871 248.431 260.857H248.692L241.963 240.159L241.771 239.562L239.583 239.725L228.865 240.549Z" fill="black"/>
    <path opacity="0.1" d="M256.967 167.831C256.967 167.831 245.833 181.797 238.912 170.273L232.293 175.511L233.498 183.542L229.584 244.283C229.584 244.283 239.815 243.932 247.035 246.725C249.045 247.552 251.218 247.696 253.297 247.139C255.376 246.582 257.274 245.348 258.769 243.582L257.579 190.174L260.288 173.766L256.967 167.831Z" fill="black"/>
    <path d="M256.967 166.784C256.967 166.784 245.833 180.75 238.912 169.225L232.293 174.464L233.498 182.494L229.584 243.236C229.584 243.236 239.815 242.885 247.035 245.677C249.045 246.505 251.218 246.649 253.297 246.092C255.376 245.535 257.274 244.301 258.769 242.534L257.579 189.126L260.288 172.719L256.967 166.784Z" fill="#53526B"/>
    <path d="M234.742 228.976V231.176H234.138V229.712H231.927V231.176H231.319V228.98L234.742 228.976Z" fill="#E82127"/>
    <path d="M234.2 228.266H231.865C231.712 228.223 231.572 228.133 231.461 228.005C231.349 227.877 231.269 227.715 231.231 227.538H234.831C234.792 227.715 234.713 227.876 234.601 228.004C234.489 228.133 234.349 228.223 234.196 228.266" fill="#E82127"/>
    <path d="M255.311 227.561C255.271 227.736 255.191 227.896 255.08 228.023C254.969 228.15 254.831 228.24 254.68 228.284H253.698L253.648 228.306V231.182H253.044V228.306L252.987 228.284H252.005C251.854 228.239 251.717 228.148 251.606 228.021C251.495 227.894 251.415 227.736 251.374 227.561H255.311Z" fill="#E82127"/>
    <path d="M233.796 239.05C233.796 239.05 233.797 248.128 231.991 251.968C230.185 255.807 219.656 253.721 219.656 253.721L221.76 240.803L233.796 239.05Z" fill="#D6DBE6"/>
    <path d="M220.801 260.003C222.388 261.756 228.965 258.249 228.512 256.163C228.194 254.686 227.084 249.399 226.453 246.401L226.015 244.293C226.015 244.293 222.161 242.894 220.801 244.293C220.306 244.801 219.959 246.804 219.796 249.224C219.517 253.427 219.8 258.889 220.801 260.003Z" fill="#FDC2CC"/>
    <path d="M235.288 173.065L245.817 182.49C245.817 182.49 261.461 181.442 257.551 172.715C255.849 168.876 254.821 164.683 254.529 160.38C254.402 158.792 254.402 157.194 254.529 155.606C254.529 155.606 240.086 140.264 241.892 157.701C242.034 159.04 242.117 160.386 242.141 161.734C242.356 174.823 235.288 173.065 235.288 173.065Z" fill="#FDC2CC"/>
    <path opacity="0.1" d="M241.923 157.706C242.066 159.044 242.149 160.39 242.173 161.739C243.793 162.984 245.695 163.646 247.639 163.641C250.333 163.641 252.316 160.599 254.107 158.578C253.907 155.681 254.557 155.611 254.557 155.611C254.557 155.611 240.117 140.251 241.923 157.706Z" fill="black"/>
    <path d="M247.637 162.944C253.121 162.944 257.566 157.786 257.566 151.424C257.566 145.062 253.121 139.904 247.637 139.904C242.154 139.904 237.709 145.062 237.709 151.424C237.709 157.786 242.154 162.944 247.637 162.944Z" fill="#FDC2CC"/>
    <path opacity="0.1" d="M254.708 162.418C254.708 162.418 256.363 162.593 259.673 167.827C262.982 173.061 270.202 173.762 270.202 173.762C270.202 173.762 272.91 172.364 275.917 188.074C278.925 203.784 279.828 214.256 278.324 216.001C276.82 217.746 270.802 220.196 267.78 220.196C267.78 220.196 266.877 242.188 268.381 246.028C269.884 249.867 268.078 252.313 268.078 252.313L254.856 251.266C254.856 251.266 250.341 244.634 249.438 233.114C248.535 221.594 245.528 188.776 247.032 184.936C248.535 181.096 255.154 171.321 254.856 170.273C254.557 169.225 254.708 162.418 254.708 162.418Z" fill="black"/>
    <path d="M254.74 162.313C254.74 162.313 256.965 162.243 260.275 167.481C263.584 172.719 270.8 173.416 270.8 173.416C270.8 173.416 273.509 172.018 276.516 187.728C279.523 203.438 280.426 213.91 278.923 215.655C277.419 217.4 271.401 219.846 268.393 219.846C268.393 219.846 267.491 241.837 268.994 245.677C270.498 249.517 268.692 251.963 268.692 251.963L255.469 250.916C255.469 250.916 250.955 244.283 250.052 232.764C249.149 221.244 246.134 188.429 247.638 184.607C249.141 180.785 255.76 170.992 255.462 169.944C255.163 168.897 254.74 162.313 254.74 162.313Z" fill="#D6DBE6"/>
    <path opacity="0.1" d="M219.799 249.219C221.238 247.944 223.954 245.958 226.455 246.396L226.017 244.288C226.017 244.288 222.164 242.889 220.803 244.288C220.301 244.796 219.957 246.795 219.799 249.219Z" fill="black"/>
    <path opacity="0.1" d="M242.088 164.514C242.088 164.514 234.415 170.273 233.512 172.719C232.609 175.165 229.3 176.91 229.3 176.91C229.3 176.91 222.983 180.75 222.983 194.365L219.673 213.564L234.717 238.002C234.717 238.002 236.523 213.564 237.426 207.629C238.329 201.694 239.53 190.534 239.53 190.534C239.53 190.534 244.045 183.901 243.44 182.157C242.836 180.412 242.088 164.514 242.088 164.514Z" fill="black"/>
    <path d="M242.089 164.408C242.089 164.408 234.087 169.576 233.188 172.018C232.289 174.459 228.976 176.208 228.976 176.208C228.976 176.208 222.659 180.048 222.659 193.663L219.35 212.862L218.749 249.517C218.749 249.517 224.166 243.582 228.077 246.374C231.987 249.166 234.393 237.296 234.393 237.296C234.393 237.296 236.199 212.858 237.102 206.923C238.005 200.988 239.206 189.828 239.206 189.828C239.206 189.828 243.721 183.195 243.116 181.451C242.512 179.706 242.089 164.408 242.089 164.408Z" fill="#D6DBE6"/>
    <path opacity="0.1" d="M238.924 137.41C239.433 136.658 240.022 135.984 240.677 135.402C241.712 134.403 242.857 133.36 244.141 133.447C244.868 133.56 245.566 133.85 246.189 134.298C249.388 136.253 252.577 138.228 255.758 140.224C256.933 140.961 258.146 141.741 258.966 143.065C259.786 144.389 260.118 146.089 260.349 147.755C260.541 148.883 260.587 150.039 260.485 151.183C260.391 152.304 259.921 153.339 259.177 154.063C258.32 154.786 257.145 154.79 256.427 155.737C256.011 156.285 255.83 157.052 255.535 157.719C255.241 158.385 254.731 159.034 254.149 158.915C253.567 158.797 253.216 158.082 253.133 157.359C253.096 156.626 253.132 155.891 253.242 155.167C253.356 153.852 253.212 152.458 252.555 151.481C252.101 150.815 251.452 150.411 251.013 149.728C249.963 148.079 250.443 145.344 249.291 143.797C248.956 143.392 248.535 143.098 248.07 142.944C247.606 142.79 247.114 142.782 246.646 142.92C245.713 143.148 244.859 143.735 244.001 144.235C242.843 144.913 241.629 145.457 240.378 145.857C239.328 146.19 238.112 146.988 237.753 145.366C237.205 142.986 237.715 139.343 238.924 137.41Z" fill="black"/>
    <path d="M239.225 137.064C239.734 136.312 240.323 135.637 240.978 135.056C242.013 134.057 243.158 133.013 244.442 133.101C245.169 133.213 245.867 133.503 246.49 133.952C249.686 135.907 252.342 134.057 256.059 139.878C256.853 141.123 258.447 141.395 259.267 142.718C260.087 144.042 260.419 145.743 260.649 147.409C260.842 148.537 260.888 149.692 260.785 150.837C260.692 151.958 260.222 152.992 259.478 153.716C258.621 154.44 257.446 154.444 256.728 155.391C256.312 155.939 256.131 156.706 255.836 157.372C255.542 158.039 255.032 158.687 254.45 158.569C253.868 158.451 253.517 157.736 253.434 157.013C253.397 156.28 253.433 155.544 253.543 154.821C253.656 153.506 253.513 152.112 252.856 151.135C252.402 150.468 251.752 150.065 251.314 149.381C250.264 147.733 250.744 144.998 249.591 143.45C249.257 143.046 248.836 142.752 248.371 142.598C247.907 142.444 247.415 142.435 246.947 142.574C246.014 142.802 245.16 143.389 244.302 143.889C243.144 144.567 241.93 145.11 240.679 145.511C239.629 145.844 238.413 146.642 238.054 145.02C237.502 142.64 238.016 138.992 239.225 137.064Z" fill="#865A61"/>
    <path opacity="0.1" d="M266.342 190.344C266.342 190.344 270.354 202.215 267.343 207.102L260.725 205.349C260.725 205.349 266.743 207.444 265.84 203.253C264.937 199.063 266.342 190.344 266.342 190.344Z" fill="black"/>
    <path opacity="0.1" d="M268.534 219.674C268.534 219.674 259.808 220.371 257.401 218.276C260.57 221.083 264.312 222.888 268.262 223.514L268.534 219.674Z" fill="black"/>
    <path opacity="0.1" d="M230.94 197.319C230.94 197.319 226.425 213.38 226.727 215.822C227.03 218.264 227.63 245.147 227.63 245.147L228.533 244.797L228.231 215.471L230.94 197.319Z" fill="black"/>
    <path d="M269.596 216.948L166.459 120.512C165.859 119.816 165.146 119.264 164.362 118.888C163.577 118.512 162.737 118.319 161.888 118.321H157.506C166.263 105.299 170.41 88.892 169.102 72.4449C167.793 55.9979 161.127 40.7493 150.462 29.8085C139.798 18.8676 125.938 13.0584 111.71 13.5652C97.4809 14.072 83.9546 20.8568 73.8887 32.5361C63.8228 44.2154 57.9753 59.9097 57.5384 76.4189C57.1016 92.9281 62.1084 109.009 71.5379 121.383C80.9674 133.757 94.1095 141.491 108.285 143.01C122.46 144.528 136.6 139.717 147.823 129.555V134.636C147.822 135.621 147.988 136.596 148.312 137.506C148.636 138.416 149.112 139.243 149.712 139.94L252.849 236.376C253.446 237.074 254.156 237.628 254.939 238.007C255.722 238.385 256.561 238.58 257.409 238.58C258.257 238.58 259.096 238.385 259.879 238.007C260.661 237.628 261.372 237.074 261.969 236.376L269.57 227.565C270.783 226.158 271.467 224.252 271.471 222.263C271.476 220.273 270.802 218.362 269.596 216.948ZM113.391 118.321C106.581 118.321 99.9239 115.977 94.2616 111.588C88.5993 107.198 84.1861 100.958 81.58 93.6583C78.974 86.3583 78.2921 78.3255 79.6206 70.5758C80.9492 62.8262 84.2285 55.7076 89.0439 50.1204C93.8593 44.5332 99.9945 40.7283 106.674 39.1868C113.353 37.6452 120.276 38.4364 126.568 41.4602C132.859 44.484 138.237 49.6045 142.02 56.1744C145.804 62.7443 147.823 70.4683 147.823 78.3698C147.826 83.6178 146.938 88.8151 145.209 93.6644C143.48 98.5138 140.944 102.92 137.746 106.631C134.548 110.343 130.751 113.286 126.572 115.293C122.393 117.301 117.914 118.332 113.391 118.329V118.321Z" fill="url(#paint2_linear)"/>
    <path d="M270.352 216.071L167.215 119.636C166.615 118.939 165.902 118.387 165.117 118.011C164.333 117.635 163.492 117.442 162.644 117.444H158.261C167.019 104.422 171.166 88.0153 169.857 71.5683C168.548 55.1212 161.882 39.8727 151.218 28.9318C140.553 17.9909 126.694 12.1817 112.465 12.6885C98.2364 13.1953 84.7101 19.9801 74.6442 31.6594C64.5783 43.3387 58.7307 59.033 58.2939 75.5422C57.8571 92.0515 62.8639 108.132 72.2934 120.506C81.7229 132.88 94.865 140.615 109.04 142.133C123.215 143.652 137.356 138.84 148.578 128.679V133.759C148.577 134.744 148.743 135.719 149.067 136.629C149.392 137.54 149.867 138.367 150.467 139.063L253.604 235.499C254.202 236.197 254.912 236.752 255.694 237.13C256.477 237.508 257.317 237.703 258.164 237.703C259.012 237.703 259.852 237.508 260.634 237.13C261.417 236.752 262.127 236.197 262.724 235.499L270.326 226.688C271.538 225.282 272.222 223.376 272.227 221.386C272.232 219.397 271.558 217.486 270.352 216.071ZM114.146 117.444C107.336 117.444 100.679 115.101 95.0171 110.711C89.3548 106.321 84.9416 100.082 82.3355 92.7817C79.7294 85.4816 79.0476 77.4489 80.3761 69.6992C81.7047 61.9495 84.984 54.831 89.7994 49.2437C94.6148 43.6565 100.75 39.8516 107.429 38.3101C114.108 36.7686 121.031 37.5597 127.323 40.5835C133.615 43.6073 138.992 48.7279 142.776 55.2977C146.559 61.8676 148.578 69.5917 148.578 77.4932C148.582 82.7411 147.694 87.9384 145.965 92.7878C144.236 97.6371 141.7 102.043 138.502 105.755C135.304 109.466 131.507 112.409 127.328 114.417C123.149 116.424 118.669 117.456 114.146 117.453V117.444Z" fill="#2D74DA"/>
    <path d="M262.681 207.278C262.681 207.278 247.626 187.246 249.742 200.993C251.253 210.768 256.961 216.006 259.67 217.054C262.379 218.101 262.681 207.278 262.681 207.278Z" fill="#FDC2CC"/>
    <path d="M266.294 188.775C266.294 188.775 266.596 201.693 268.1 203.438C269.603 205.182 267.197 207.278 267.197 207.278L261.179 205.524C261.179 205.524 262.69 217.044 256.366 215.65C256.366 215.65 260.578 220.187 264.79 220.888C269.003 221.59 268.701 219.841 268.701 219.841L275.017 211.113L266.294 188.775Z" fill="#D6DBE6"/>
    <path d="M267.961 220.029L274.066 218.473L273.25 215.207L269.472 213.454L264.561 216.084L267.961 220.029Z" fill="#D6DBE6"/>
    <path d="M117.913 94.0491L126.039 86.777C126.039 86.777 120.596 88.1315 120.75 78.0364C120.749 78.0028 120.749 77.9691 120.75 77.9356C120.75 77.0238 120.826 76.0244 120.939 74.9241C122.333 61.4538 111.189 73.3066 111.189 73.3066C111.284 74.4993 111.284 75.6997 111.189 76.8923C111.189 76.923 111.189 76.9581 111.189 76.9887C110.968 80.3082 110.179 83.5434 108.869 86.5052C105.843 93.2382 117.913 94.0491 117.913 94.0491Z" fill="#FDC2CC"/>
    <path opacity="0.1" d="M112.228 75.0206C113.607 76.5767 114.449 79.404 116.523 79.404C118.024 79.4078 119.492 78.8969 120.743 77.9356C120.743 77.0238 120.819 76.0244 120.932 74.9241C122.326 61.4538 111.181 73.3066 111.181 73.3066C111.181 73.3066 112.375 72.8288 112.228 75.0206Z" fill="black"/>
    <path d="M116.522 78.9657C120.753 78.9657 124.183 74.9857 124.183 70.0761C124.183 65.1665 120.753 61.1865 116.522 61.1865C112.29 61.1865 108.86 65.1665 108.86 70.0761C108.86 74.9857 112.29 78.9657 116.522 78.9657Z" fill="#FDC2CC"/>
    <path opacity="0.1" d="M123.87 58.6921C123.431 58.0478 122.923 57.4704 122.359 56.9738C121.475 56.119 120.493 55.2204 119.394 55.2993C118.772 55.3954 118.174 55.6434 117.641 56.027C114.902 57.7014 112.631 56.119 109.446 61.0986C108.766 62.1638 107.402 62.4137 106.7 63.5314C105.997 64.6492 105.714 66.1177 105.514 67.5467C105.348 68.5133 105.309 69.5033 105.396 70.4836C105.48 71.4457 105.888 72.3307 106.53 72.9471C107.263 73.5651 108.271 73.5695 108.887 74.3805C109.197 74.9087 109.451 75.4782 109.643 76.0769C109.892 76.6467 110.33 77.1859 110.829 77.1026C111.328 77.0193 111.626 76.3925 111.698 75.7875C111.729 75.1615 111.697 74.5334 111.604 73.9158C111.509 72.8068 111.63 71.597 112.193 70.7597C112.571 70.1855 113.137 69.8436 113.511 69.2606C114.411 67.8535 114.002 65.4908 114.989 64.1846C115.277 63.841 115.639 63.5923 116.037 63.4637C116.435 63.3351 116.855 63.3312 117.255 63.4525C118.049 63.7155 118.811 64.0956 119.522 64.5835C120.514 65.1644 121.553 65.6298 122.624 65.973C123.523 66.2579 124.566 66.9418 124.872 65.5347C125.351 63.4657 124.902 60.3447 123.87 58.6921Z" fill="black"/>
    <path d="M123.87 58.2538C123.431 57.6094 122.923 57.0321 122.359 56.5355C121.475 55.6807 120.493 54.7821 119.394 54.861C118.772 54.957 118.174 55.205 117.641 55.5886C114.902 57.2631 112.631 55.6807 109.446 60.6603C108.766 61.7255 107.402 61.9753 106.7 63.0931C105.997 64.2109 105.714 65.6793 105.514 67.1083C105.348 68.075 105.309 69.065 105.396 70.0452C105.48 71.0074 105.888 71.8924 106.53 72.5087C107.263 73.1268 108.271 73.1312 108.887 73.9421C109.197 74.4703 109.451 75.0399 109.643 75.6385C109.892 76.2084 110.33 76.7475 110.829 76.6642C111.328 76.581 111.626 75.9541 111.698 75.3492C111.729 74.7232 111.697 74.095 111.604 73.4775C111.509 72.3685 111.63 71.1586 112.193 70.3214C112.571 69.7472 113.137 69.4053 113.511 68.8223C114.411 67.4152 114.002 65.0525 114.989 63.7462C115.277 63.4027 115.639 63.1539 116.037 63.0253C116.435 62.8967 116.855 62.8929 117.255 63.0142C118.049 63.2772 118.811 63.6573 119.522 64.1451C120.514 64.726 121.553 65.1915 122.624 65.5347C123.523 65.8196 124.566 66.5034 124.872 65.0963C125.351 63.0273 124.902 59.9063 123.87 58.2538Z" fill="#865A61"/>
    <path opacity="0.1" d="M108.86 98.7266L108.709 105.455C110.904 106.147 113.17 106.497 115.445 106.494C115.823 106.494 116.219 106.494 116.605 106.463C118.622 106.362 120.622 105.983 122.562 105.332H122.6C122.959 105.21 123.314 105.083 123.665 104.942H123.703L124.024 104.811C125.247 104.311 126.435 103.701 127.576 102.987L127.647 102.943C127.772 102.865 127.897 102.786 128.025 102.702L127.44 93.633L128.373 87.4129L123.265 83.3758C122.978 83.8562 122.657 84.3078 122.305 84.7259C121.801 85.3369 121.211 85.8439 120.56 86.225C116.895 88.3203 112.725 84.9889 110.651 82.9287L110.178 82.4421C109.642 81.8766 109.336 81.4909 109.336 81.4909L106.782 86.0672L108.86 98.7266Z" fill="black"/>
    <path d="M108.86 99.1649L108.709 105.893C110.904 106.586 113.17 106.935 115.445 106.932C115.823 106.932 116.219 106.932 116.605 106.902C118.622 106.801 120.622 106.421 122.562 105.771H122.6C122.959 105.648 123.314 105.521 123.665 105.381H123.703L124.024 105.249C125.247 104.749 126.435 104.14 127.576 103.426L127.647 103.382C127.772 103.303 127.897 103.224 128.025 103.141L127.44 94.0713L128.373 87.8512L123.265 83.8141C122.978 84.2945 122.657 84.7461 122.305 85.1642C121.801 85.7752 121.211 86.2822 120.56 86.6633C116.895 88.7586 112.725 85.4272 110.651 83.3669L110.178 82.8804C109.642 82.3149 109.336 81.9292 109.336 81.9292L106.782 86.5055L108.86 99.1649Z" fill="#53526B"/>
    <path d="M123.02 99.7039C123.02 99.7039 123.299 102.286 123.666 105.372H123.704L124.025 105.24C125.248 104.741 126.435 104.131 127.576 103.417L127.648 103.373C127.772 103.294 127.897 103.215 128.026 103.132C129.7 102.041 131.264 100.735 132.687 99.2392L132.812 99.1034C133.593 98.2835 134.326 97.4049 135.007 96.4733L135.086 96.3637C133.738 90.9326 130.931 89.2231 130.931 89.2231C130.931 89.2231 128.377 87.873 127.678 85.9881C126.979 84.1032 120.81 80.1187 120.81 80.1187V80.1493C120.81 80.4869 120.711 83.5772 120.564 86.6851C120.47 88.7058 120.353 90.7354 120.217 92.0241C120.187 92.4428 120.121 92.8569 120.02 93.2602C119.54 94.5884 123.02 99.7039 123.02 99.7039Z" fill="#555388"/>
    <defs>
        <linearGradient id="paint0_linear" x1="194.291" y1="348.311" x2="194.291" y2="17.2249" gradientUnits="userSpaceOnUse">
            <stop stop-color="#808080" stop-opacity="0.25"/>
            <stop offset="0.54" stop-color="#808080" stop-opacity="0.12"/>
            <stop offset="1" stop-color="#808080" stop-opacity="0.1"/>
        </linearGradient>
        <linearGradient id="paint1_linear" x1="-66060.2" y1="206750" x2="-66060.2" y2="77494.7" gradientUnits="userSpaceOnUse">
            <stop stop-color="#808080" stop-opacity="0.25"/>
            <stop offset="0.54" stop-color="#808080" stop-opacity="0.12"/>
            <stop offset="1" stop-color="#808080" stop-opacity="0.1"/>
        </linearGradient>
        <linearGradient id="paint2_linear" x1="102439" y1="127873" x2="102439" y2="12294.2" gradientUnits="userSpaceOnUse">
            <stop stop-color="#808080" stop-opacity="0.25"/>
            <stop offset="0.54" stop-color="#808080" stop-opacity="0.12"/>
            <stop offset="1" stop-color="#808080" stop-opacity="0.1"/>
        </linearGradient>
    </defs>
</svg>
